<?xml version="1.0" encoding="utf-8"?>
<!-- Generator: Adobe Illustrator 25.0.0, SVG Export Plug-In . SVG Version: 6.00 Build 0)  -->
<svg version="1.1" id="Layer_1" xmlns="http://www.w3.org/2000/svg" xmlns:xlink="http://www.w3.org/1999/xlink" x="0px" y="0px"
	 viewBox="0 0 319 477" style="enable-background:new 0 0 319 477;" xml:space="preserve">
<style type="text/css">
	.st0{fill-rule:evenodd;clip-rule:evenodd;fill:url(#SVGID_1_);}
	.st1{fill-rule:evenodd;clip-rule:evenodd;fill:url(#SVGID_2_);}
	.st2{fill-rule:evenodd;clip-rule:evenodd;fill:url(#SVGID_3_);}
	.st3{fill-rule:evenodd;clip-rule:evenodd;fill:url(#SVGID_4_);}
	.st4{fill:none;stroke:#072C47;stroke-width:6;stroke-linecap:round;stroke-linejoin:round;}
	.st5{fill:none;stroke:#4198D1;stroke-width:11;stroke-linecap:round;}
	.st6{fill:none;stroke:#48A9E8;stroke-width:11;stroke-linecap:round;}
	
		.st7{fill-rule:evenodd;clip-rule:evenodd;fill:#072A45;stroke:#000000;stroke-width:0.25;stroke-linecap:round;stroke-linejoin:round;}
</style>
<g id="Layer_1_1_">
	
		<linearGradient id="SVGID_1_" gradientUnits="userSpaceOnUse" x1="10.8004" y1="-409.078" x2="10.6804" y2="-408.648" gradientTransform="matrix(91.59 -71.56 121.33 155.3 48693.0547 64369.3984)">
		<stop  offset="6.926126e-08" style="stop-color:#6DCDEA"/>
		<stop  offset="1" style="stop-color:#1F89CA"/>
	</linearGradient>
	<path class="st0" d="M145.8,231.3c32.3-30.8,22.4-68.8-6.8-114.9s-88.1-62.5-99-52s-13.5,85.2,15.8,131.3S113.5,262,145.8,231.3
		L145.8,231.3z"/>
	
		<linearGradient id="SVGID_2_" gradientUnits="userSpaceOnUse" x1="10.2887" y1="-408.9633" x2="10.1587" y2="-408.5333" gradientTransform="matrix(71.6 91.65 -155.3 121.33 -63918.8984 48803.5391)">
		<stop  offset="0" style="stop-color:#60C1E4"/>
		<stop  offset="1" style="stop-color:#1F89CA"/>
	</linearGradient>
	<path class="st1" d="M173.7,235.5c23.9,37.6,55.8,23.9,95.3-13.8S324.9,112,316.8,99.2S247,87,207.4,124.7S149.8,197.9,173.7,235.5
		z"/>
	
		<linearGradient id="SVGID_3_" gradientUnits="userSpaceOnUse" x1="10.3725" y1="-409.0896" x2="10.3725" y2="-408.5096" gradientTransform="matrix(102.23 12.55 -26.32 214.39 -11641.3408 87576.1641)">
		<stop  offset="4.469206e-03" style="stop-color:#97E5FF"/>
		<stop  offset="1" style="stop-color:#35A2E6"/>
	</linearGradient>
	<path class="st2" d="M160.6,214.8c39.6,4.9,55.2-31.8,62.5-91S200.5,2.1,187,0.4s-58.8,51.7-66.1,110.9S121,209.9,160.6,214.8z"/>
	
		<linearGradient id="SVGID_4_" gradientUnits="userSpaceOnUse" x1="10.4982" y1="-408.8517" x2="10.4382" y2="-408.0217" gradientTransform="matrix(301 0 0 333 -3000 136349.2969)">
		<stop  offset="1.396633e-02" style="stop-color:#7ABFF0"/>
		<stop  offset="1" style="stop-color:#37A2E6"/>
	</linearGradient>
	<path class="st3" d="M150.7,477.1c83.1,0,150.5-24.1,150.5-133.6s-67.4-199.4-150.5-199.4S0.2,234,0.2,343.5
		S67.6,477.1,150.7,477.1z"/>
	<path class="st4" d="M157.6,305.7c-6.2,5.2-14.4,7.5-22.4,6.4c-8.5-1-14.8-4.5-18.8-10.6"/>
	<path class="st5" d="M36.7,353.1l74,77"/>
	<path class="st5" d="M100.7,362.1l-47,50"/>
	<path class="st5" d="M263.7,353.1l-74,77"/>
	<path class="st5" d="M199.7,362.1l47,50"/>
	<path class="st6" d="M180.7,183.1l-49,49"/>
	<path class="st6" d="M170.7,232.1l-49-49"/>
</g>
<g id="Layer_2_1_">
	<path class="st7" d="M89.1,276.9c0.8,0.5,1.5,1.2,2.1,2c0.4,1.1,0.5,2.3,0.2,3.5c-1.3,8.4-5.6,16.5-12.8,21.1s-17.2,4.9-23.9-0.4
		c-4.4-3.5-7-8.8-7.1-14.5c0-5.6,2.1-11,6-15c0.8-0.7,1.4-1.5,1.7-2.5c0.1-0.9-0.1-1.8-0.4-2.6c-1-2.6-2.2-5.2-3.5-7.6
		c-1.2-2.2-4.2-5.3-4.7-7.6c-1.7-8.1,6.6-2,9.2-0.2L89.1,276.9z"/>
	<path class="st7" d="M187.9,279.2c-0.8,0.5-1.5,1.2-2.1,2c-0.4,1.1-0.5,2.3-0.2,3.5c1.3,8.4,5.6,16.5,12.8,21.1s17.2,4.9,23.9-0.4
		c4.4-3.5,7-8.8,7.1-14.5c0-5.6-2.1-11-6.1-15c-0.8-0.7-1.4-1.5-1.7-2.5c-0.1-0.9,0.1-1.8,0.4-2.6c1-2.6,2.2-5.2,3.5-7.6
		c1.2-2.2,4.2-5.3,4.7-7.6c1.7-8.1-6.6-2-9.2-0.2L187.9,279.2z"/>
</g>
</svg>
